<svg preserveAspectRatio="none" width="100%" height="100%" overflow="visible" style="display: block;" viewBox="0 0 27.2599 17.6001" fill="none" xmlns="http://www.w3.org/2000/svg">
<path id="Available" d="M27.0478 17.6001C27.1656 17.6001 27.2613 17.5045 27.2598 17.3867C27.2222 14.277 26.3611 11.2314 24.7625 8.56077C23.1274 5.8291 20.782 3.59209 17.976 2.08802C15.1701 0.583942 12.0087 -0.130876 8.82861 0.0197002C5.7196 0.166911 2.70655 1.13587 0.0959706 2.82604C-0.00293217 2.89007 -0.0295567 3.02262 0.0356696 3.12074L1.55329 5.40368C1.61852 5.5018 1.75086 5.52832 1.84993 5.46455C3.98316 4.09148 6.44185 3.30428 8.97845 3.18417C11.5861 3.0607 14.1784 3.64685 16.4793 4.88019C18.7802 6.11354 20.7034 7.94788 22.0442 10.1878C23.3485 12.3668 24.054 14.8501 24.0915 17.3868C24.0933 17.5046 24.1886 17.6001 24.3065 17.6001H27.0478Z" fill="var(--fill-0, #EB6E00)"/>
</svg>
